<?xml version="1.0" standalone="no"?>
<!DOCTYPE svg PUBLIC "-//W3C//DTD SVG 20010904//EN"
 "http://www.w3.org/TR/2001/REC-SVG-20010904/DTD/svg10.dtd">
<svg version="1.0" xmlns="http://www.w3.org/2000/svg"
 width="279.000000pt" height="180.000000pt" viewBox="0 0 279.000000 180.000000"
 preserveAspectRatio="xMidYMid meet">
<metadata>
Created by potrace 1.16, written by Peter Selinger 2001-2019
</metadata>
<g transform="translate(0.000000,180.000000) scale(0.100000,-0.100000)"
fill="#000000" stroke="none">
<path d="M1007 1790 c-132 -34 -222 -137 -234 -268 -3 -31 0 -73 5 -92 9 -31
10 -29 5 21 -6 61 14 149 42 184 13 17 13 14 -1 -15 -25 -52 -30 -166 -10
-228 22 -64 85 -136 147 -167 62 -32 74 -32 27 0 -44 30 -74 77 -83 130 -4 22
-12 45 -17 52 -11 14 -1 56 12 48 5 -3 13 3 19 12 9 16 10 16 11 -4 0 -32 37
-30 72 4 l28 27 0 -27 0 -27 99 0 c97 0 99 0 95 23 l-5 22 10 -22 c12 -27 41
-31 42 -5 0 9 3 12 5 5 3 -7 11 -10 18 -7 22 8 25 -20 10 -72 -25 -81 -56
-134 -93 -160 -20 -13 -31 -24 -25 -24 5 0 11 -10 11 -22 5 -63 69 -108 127
-88 45 15 67 41 73 89 5 36 2 44 -30 76 -19 19 -29 35 -21 35 25 0 75 -54 84
-90 7 -33 8 -33 9 -7 2 48 -42 106 -80 107 -13 0 -10 12 15 62 74 150 13 329
-138 403 -60 29 -166 41 -229 25z"/>
<path d="M2230 1530 c0 -19 7 -20 210 -20 203 0 210 1 210 20 0 19 -7 20 -210
20 -203 0 -210 -1 -210 -20z"/>
<path d="M748 1015 c-3 -3 1 -22 8 -43 7 -20 13 -70 14 -109 l0 -73 -165 0
c-152 0 -165 -1 -175 -19 -6 -13 -10 -142 -10 -350 0 -284 -2 -331 -15 -331
-23 0 -37 -35 -25 -64 l10 -26 665 0 665 0 6 24 c10 43 1 61 -34 64 l-32 3 0
338 c0 249 -3 340 -12 349 -8 8 -47 12 -110 12 l-98 0 0 101 0 100 -47 -3 -48
-3 4 -97 3 -98 -241 0 -241 0 0 69 c0 75 -14 129 -38 149 -16 12 -74 17 -84 7z"/>
</g>
</svg>
